<svg class="border shadow-md" viewBox="0 0 551.76 551.76" style="width: 551.76px; height: 551.76px;" xmlns="http://www.w3.org/2000/svg" preserveAspectRatio="none"><rect class="bg" id="bg" x="0" y="0" width="551.76" height="551.76" fill="#ffffff"/><line opacity="0.8" x1="0" y1="71" x2="61.306666666666665" y2="132.30666666666667" stroke-linecap="round" stroke="#F18701" stroke-width="16"/><line opacity="0.8" x1="0" y1="254.92" x2="87" y2="341.91999999999996" stroke-linecap="round" stroke="#b9d6f2" stroke-width="22"/><line opacity="0.8" x1="0" y1="515.92" x2="61.306666666666665" y2="577.2266666666666" stroke-linecap="round" stroke="#F18701" stroke-width="16"/><line opacity="0.8" x1="55.176" y1="-73" x2="117.176" y2="-11" stroke-linecap="round" stroke="#F18701" stroke-width="16"/><line opacity="0.8" x1="55.176" y1="53" x2="94.176" y2="92" stroke-linecap="round" stroke="#7678ED" stroke-width="27"/><line opacity="0.8" x1="55.176" y1="153.30666666666667" x2="88.176" y2="186.30666666666667" stroke-linecap="round" stroke="#b9d6f2" stroke-width="24"/><line opacity="0.8" x1="55.176" y1="252.30666666666667" x2="101.176" y2="298.3066666666667" stroke-linecap="round" stroke="#7678ED" stroke-width="30"/><line opacity="0.8" x1="55.176" y1="359.61333333333334" x2="92.676" y2="397.11333333333334" stroke-linecap="round" stroke="#0353a4" stroke-width="16"/><line opacity="0.8" x1="55.176" y1="472.11333333333334" x2="85.82933333333334" y2="502.76666666666665" stroke-linecap="round" stroke="#0353a4" stroke-width="34"/><line opacity="0.8" x1="110.352" y1="48" x2="227.352" y2="165" stroke-linecap="round" stroke="#F18701" stroke-width="26"/><line opacity="0.8" x1="110.352" y1="287.61333333333334" x2="219.352" y2="396.61333333333334" stroke-linecap="round" stroke="#b9d6f2" stroke-width="35"/><line opacity="0.8" x1="110.352" y1="532.6133333333333" x2="256.352" y2="678.6133333333333" stroke-linecap="round" stroke="#7678ED" stroke-width="26"/><line opacity="0.8" x1="165.52800000000002" y1="-58" x2="226.8346666666667" y2="3.306666666666665" stroke-linecap="round" stroke="#b9d6f2" stroke-width="16"/><line opacity="0.8" x1="165.52800000000002" y1="125.91999999999999" x2="226.8346666666667" y2="187.22666666666666" stroke-linecap="round" stroke="#b9d6f2" stroke-width="16"/><line opacity="0.8" x1="165.52800000000002" y1="309.84" x2="226.8346666666667" y2="371.14666666666665" stroke-linecap="round" stroke="#0353a4" stroke-width="19"/><line opacity="0.8" x1="220.704" y1="-47" x2="257.488" y2="-10.216000000000001" stroke-linecap="round" stroke="#b9d6f2" stroke-width="21"/><line opacity="0.8" x1="220.704" y1="63.352000000000004" x2="291.704" y2="134.352" stroke-linecap="round" stroke="#b9d6f2" stroke-width="16"/><line opacity="0.8" x1="220.704" y1="207.92" x2="282.704" y2="269.91999999999996" stroke-linecap="round" stroke="#F18701" stroke-width="16"/><line opacity="0.8" x1="220.704" y1="343.48799999999994" x2="272.704" y2="395.48799999999994" stroke-linecap="round" stroke="#7678ED" stroke-width="24"/><line opacity="0.8" x1="220.704" y1="481.48799999999994" x2="285.704" y2="546.4879999999999" stroke-linecap="round" stroke="#F18701" stroke-width="16"/><line opacity="0.8" x1="275.88" y1="45" x2="307.88" y2="77" stroke-linecap="round" stroke="#0353a4" stroke-width="24"/><line opacity="0.8" x1="275.88" y1="138.30666666666667" x2="306.5333333333333" y2="168.96" stroke-linecap="round" stroke="#b9d6f2" stroke-width="16"/><line opacity="0.8" x1="275.88" y1="230.26666666666665" x2="306.5333333333333" y2="260.91999999999996" stroke-linecap="round" stroke="#b9d6f2" stroke-width="38"/><line opacity="0.8" x1="275.88" y1="322.22666666666663" x2="325.88" y2="372.22666666666663" stroke-linecap="round" stroke="#b9d6f2" stroke-width="16"/><line opacity="0.8" x1="275.88" y1="433.5333333333333" x2="353.88" y2="511.5333333333333" stroke-linecap="round" stroke="#b9d6f2" stroke-width="29"/><line opacity="0.8" x1="275.88" y1="593.5333333333333" x2="328.88" y2="646.5333333333333" stroke-linecap="round" stroke="#0353a4" stroke-width="16"/><line opacity="0.8" x1="331.05600000000004" y1="119" x2="367.84000000000003" y2="155.784" stroke-linecap="round" stroke="#b9d6f2" stroke-width="16"/><line opacity="0.8" x1="331.05600000000004" y1="229.352" x2="414.05600000000004" y2="312.352" stroke-linecap="round" stroke="#b9d6f2" stroke-width="16"/><line opacity="0.8" x1="331.05600000000004" y1="413.352" x2="371.55600000000004" y2="453.852" stroke-linecap="round" stroke="#7678ED" stroke-width="16"/><line opacity="0.8" x1="331.05600000000004" y1="534.852" x2="367.84000000000003" y2="571.636" stroke-linecap="round" stroke="#0353a4" stroke-width="20"/><line opacity="0.8" x1="331.05600000000004" y1="645.204" x2="373.55600000000004" y2="687.704" stroke-linecap="round" stroke="#0353a4" stroke-width="18"/><line opacity="0.8" x1="386.232" y1="90" x2="447.5386666666667" y2="151.30666666666667" stroke-linecap="round" stroke="#7678ED" stroke-width="16"/><line opacity="0.8" x1="386.232" y1="273.91999999999996" x2="455.732" y2="343.41999999999996" stroke-linecap="round" stroke="#b9d6f2" stroke-width="21"/><line opacity="0.8" x1="386.232" y1="482.41999999999996" x2="501.232" y2="597.42" stroke-linecap="round" stroke="#b9d6f2" stroke-width="16"/><line opacity="0.8" x1="441.408" y1="103" x2="525.408" y2="187" stroke-linecap="round" stroke="#F18701" stroke-width="16"/><line opacity="0.8" x1="441.408" y1="355" x2="549.408" y2="463" stroke-linecap="round" stroke="#F18701" stroke-width="34"/><line opacity="0.8" x1="441.408" y1="585.6133333333333" x2="549.408" y2="693.6133333333333" stroke-linecap="round" stroke="#b9d6f2" stroke-width="16"/><line opacity="0.8" x1="496.584" y1="-48" x2="586.5840000000001" y2="42" stroke-linecap="round" stroke="#F18701" stroke-width="16"/><line opacity="0.8" x1="496.584" y1="164.61333333333334" x2="557.8906666666667" y2="225.92000000000002" stroke-linecap="round" stroke="#b9d6f2" stroke-width="23"/><line opacity="0.8" x1="496.584" y1="348.5333333333333" x2="605.5840000000001" y2="457.5333333333333" stroke-linecap="round" stroke="#0353a4" stroke-width="37"/></svg>