<svg class="border shadow-md" viewBox="0 0 551.76 551.76" xmlns="http://www.w3.org/2000/svg" preserveAspectRatio="none" style="width: 551.76px; height: 551.76px;"><rect class="bg" id="bg" x="0" y="0" width="551.76" height="551.76" fill="#ffffff"/><g transform="rotate(0 275.88 275.88)"><path d="M -375.88 -25.18 S -371.00 -62.18&#10;            0.00 -25.18 177.94 -52.76&#10;            375.88 -25.18 539.76 -52.76&#10;            751.76 -25.18 929.70 -52.76&#10;            1127.64 -25.18 h 110 V 751.76 H -375.88 Z" fill="#8BBFEF" id="-1"/><path d="M -375.88 30.00 S -197.94 2.41&#10;            0.00 30.00 177.94 2.41&#10;            375.88 30.00 553.82 -6.00&#10;            751.76 30.00 929.70 -10.00&#10;            1127.64 30.00 h 110 V 751.76 H -375.88 Z" fill="#7eb5e8" id="0"/><path id="1" d="M -375.88 85.18 S -197.94 57.59&#10;            0.00 85.18 132.88 57.59&#10;            375.88 85.18 553.82 57.59&#10;            751.76 85.18 929.70 57.59&#10;            1127.64 85.18 h 110 V 751.76 H -375.88 Z" fill="#71abe1"/><path id="2" d="M -375.88 140.35 S -350.00 112.76&#10;            0.00 140.35 140.88 112.76&#10;            375.88 140.35 426.76 87.35&#10;            751.76 140.35 929.70 112.76&#10;            1127.64 140.35 h 110 V 751.76 H -375.88 Z" fill="#64a1da"/><path id="3" d="M -375.88 195.53 S -197.94 167.94&#10;            0.00 195.53 177.94 141.53&#10;            375.88 195.53 539.76 167.94&#10;            751.76 195.53 929.70 156.53&#10;            1127.64 195.53 h 110 V 751.76 H -375.88 Z" fill="#5797d3"/><path id="4" d="M -375.88 250.70 S -197.94 198.70&#10;            0.00 250.70 177.94 201.70&#10;            375.88 250.70 410.76 219.70&#10;            751.76 250.70 929.70 199.70&#10;            1127.64 250.70 h 110 V 751.76 H -375.88 Z" fill="#4a8dcc"/><path id="5" d="M -375.88 305.88 S -197.94 273.88&#10;            0.00 305.88 177.94 278.29&#10;            375.88 305.88 370.76 253.88&#10;            751.76 305.88 856.64 278.29&#10;            1127.64 305.88 h 110 V 751.76 H -375.88 Z" fill="#3d83c5"/><path id="6" d="M -375.88 361.06 S -216.00 333.47&#10;            0.00 361.06 58.88 333.47&#10;            375.88 361.06 553.82 333.47&#10;            751.76 361.06 929.70 333.47&#10;            1127.64 361.06 h 110 V 751.76 H -375.88 Z" fill="#3079be"/><path id="7" d="M -375.88 416.23 S -345.00 364.23&#10;            0.00 416.23 177.94 388.64&#10;            375.88 416.23 381.76 388.64&#10;            751.76 416.23 878.64 382.23&#10;            1127.64 416.23 h 110 V 751.76 H -375.88 Z" fill="#236fb7"/><path id="8" d="M -375.88 471.41 S -367.00 420.41&#10;            0.00 471.41 177.94 443.82&#10;            375.88 471.41 553.82 443.82&#10;            751.76 471.41 929.70 418.41&#10;            1127.64 471.41 h 110 V 751.76 H -375.88 Z" fill="#1665b0"/><path id="9" d="M -375.88 526.58 S -197.94 499.00&#10;            0.00 526.58 43.88 486.58&#10;            375.88 526.58 553.82 474.58&#10;            751.76 526.58 807.64 487.58&#10;            1127.64 526.58 h 110 V 751.76 H -375.88 Z" fill="#095ba9"/></g></svg>